<mxfile modified="2022-07-05T21:54:19.437Z" host="app.diagrams.net" agent="5.0 (X11; Linux x86_64) AppleWebKit/537.36 (KHTML, like Gecko) Chrome/102.0.0.0 Safari/537.36" etag="hEiz2QBbQ14uTW9TaBFn" version="20.0.4" type="github">
  <diagram id="Ht1M8jgEwFfnCIfOTk4-" name="Page-1">
    <mxGraphModel dx="1422" dy="737" grid="1" gridSize="10" guides="1" tooltips="1" connect="1" arrows="1" fold="1" page="1" pageScale="1" pageWidth="1169" pageHeight="827" math="0" shadow="0">
      <root>
        <mxCell id="0" />
        <mxCell id="1" parent="0" />
        <mxCell id="hSxU9nhvMt24uW7oTp4U-20" value="SSL" style="edgeStyle=orthogonalEdgeStyle;rounded=0;orthogonalLoop=1;jettySize=auto;html=1;startArrow=none;startFill=0;strokeWidth=2;" parent="1" source="hSxU9nhvMt24uW7oTp4U-1" target="hSxU9nhvMt24uW7oTp4U-5" edge="1">
          <mxGeometry x="-0.3744" relative="1" as="geometry">
            <Array as="points">
              <mxPoint x="195" y="320" />
              <mxPoint x="195" y="320" />
            </Array>
            <mxPoint as="offset" />
          </mxGeometry>
        </mxCell>
        <mxCell id="hSxU9nhvMt24uW7oTp4U-1" value="Skyone - VPN" style="sketch=0;outlineConnect=0;gradientColor=none;fontColor=#545B64;strokeColor=none;fillColor=#879196;dashed=0;verticalLabelPosition=top;verticalAlign=bottom;align=center;html=1;fontSize=12;fontStyle=0;aspect=fixed;shape=mxgraph.aws4.illustration_office_building;pointerEvents=1;labelPosition=center;" parent="1" vertex="1">
          <mxGeometry x="151.5" y="126" width="85.5" height="60.71" as="geometry" />
        </mxCell>
        <mxCell id="hSxU9nhvMt24uW7oTp4U-5" value="Rancher" style="points=[[0,0],[0.25,0],[0.5,0],[0.75,0],[1,0],[1,0.25],[1,0.5],[1,0.75],[1,1],[0.75,1],[0.5,1],[0.25,1],[0,1],[0,0.75],[0,0.5],[0,0.25]];outlineConnect=0;gradientColor=none;html=1;whiteSpace=wrap;fontSize=12;fontStyle=0;container=1;pointerEvents=0;collapsible=0;recursiveResize=0;shape=mxgraph.aws4.group;grIcon=mxgraph.aws4.group_aws_cloud_alt;strokeColor=#232F3E;fillColor=none;verticalAlign=top;align=left;spacingLeft=30;fontColor=#232F3E;dashed=0;" parent="1" vertex="1">
          <mxGeometry x="79" y="229" width="231" height="230" as="geometry" />
        </mxCell>
        <mxCell id="hSxU9nhvMt24uW7oTp4U-14" value="" style="edgeStyle=orthogonalEdgeStyle;rounded=0;orthogonalLoop=1;jettySize=auto;html=1;strokeWidth=2;startArrow=none;startFill=0;fillColor=#d5e8d4;strokeColor=#82b366;" parent="hSxU9nhvMt24uW7oTp4U-5" source="hSxU9nhvMt24uW7oTp4U-6" edge="1">
          <mxGeometry relative="1" as="geometry">
            <Array as="points">
              <mxPoint x="101" y="141" />
              <mxPoint x="101" y="141" />
            </Array>
            <mxPoint x="153" y="141" as="targetPoint" />
          </mxGeometry>
        </mxCell>
        <mxCell id="hSxU9nhvMt24uW7oTp4U-6" value="Rancher" style="sketch=0;points=[[0,0,0],[0.25,0,0],[0.5,0,0],[0.75,0,0],[1,0,0],[0,1,0],[0.25,1,0],[0.5,1,0],[0.75,1,0],[1,1,0],[0,0.25,0],[0,0.5,0],[0,0.75,0],[1,0.25,0],[1,0.5,0],[1,0.75,0]];outlineConnect=0;fontColor=#232F3E;gradientColor=#F78E04;gradientDirection=north;fillColor=#D05C17;strokeColor=#ffffff;dashed=0;verticalLabelPosition=bottom;verticalAlign=top;align=center;html=1;fontSize=12;fontStyle=0;aspect=fixed;shape=mxgraph.aws4.resourceIcon;resIcon=mxgraph.aws4.ec2;" parent="hSxU9nhvMt24uW7oTp4U-5" vertex="1">
          <mxGeometry x="21" y="111" width="60" height="60" as="geometry" />
        </mxCell>
        <mxCell id="hSxU9nhvMt24uW7oTp4U-54" style="edgeStyle=orthogonalEdgeStyle;rounded=0;orthogonalLoop=1;jettySize=auto;html=1;startArrow=none;startFill=0;strokeColor=#82b366;strokeWidth=2;fillColor=#d5e8d4;" parent="hSxU9nhvMt24uW7oTp4U-5" source="hSxU9nhvMt24uW7oTp4U-53" target="hSxU9nhvMt24uW7oTp4U-6" edge="1">
          <mxGeometry relative="1" as="geometry">
            <Array as="points">
              <mxPoint x="115" y="81" />
              <mxPoint x="51" y="81" />
            </Array>
          </mxGeometry>
        </mxCell>
        <mxCell id="hSxU9nhvMt24uW7oTp4U-53" value="ALB" style="sketch=0;outlineConnect=0;fontColor=#232F3E;gradientColor=none;fillColor=#4D27AA;strokeColor=none;dashed=0;verticalLabelPosition=middle;verticalAlign=middle;align=left;html=1;fontSize=12;fontStyle=1;aspect=fixed;pointerEvents=1;shape=mxgraph.aws4.application_load_balancer;labelPosition=right;" parent="hSxU9nhvMt24uW7oTp4U-5" vertex="1">
          <mxGeometry x="90" width="50.5" height="50.5" as="geometry" />
        </mxCell>
        <mxCell id="VFxCpets81M08XsOUOsf-1" value="Peering" style="sketch=0;outlineConnect=0;fontColor=#232F3E;gradientColor=none;fillColor=#4D27AA;strokeColor=none;dashed=0;verticalLabelPosition=bottom;verticalAlign=top;align=center;html=1;fontSize=12;fontStyle=1;aspect=fixed;pointerEvents=1;shape=mxgraph.aws4.peering;" vertex="1" parent="hSxU9nhvMt24uW7oTp4U-5">
          <mxGeometry x="150.5" y="115.5" width="51" height="51" as="geometry" />
        </mxCell>
        <mxCell id="hSxU9nhvMt24uW7oTp4U-9" value="OCI" style="points=[[0,0],[0.25,0],[0.5,0],[0.75,0],[1,0],[1,0.25],[1,0.5],[1,0.75],[1,1],[0.75,1],[0.5,1],[0.25,1],[0,1],[0,0.75],[0,0.5],[0,0.25]];outlineConnect=0;gradientColor=none;html=1;whiteSpace=wrap;fontSize=12;fontStyle=0;container=1;pointerEvents=0;collapsible=0;recursiveResize=0;shape=mxgraph.aws4.group;grIcon=mxgraph.aws4.group_aws_cloud;strokeColor=#232F3E;fillColor=none;verticalAlign=top;align=left;spacingLeft=30;fontColor=#232F3E;dashed=0;" parent="1" vertex="1">
          <mxGeometry x="380" y="60" width="740" height="690" as="geometry" />
        </mxCell>
        <mxCell id="hSxU9nhvMt24uW7oTp4U-52" value="Public subnet" style="points=[[0,0],[0.25,0],[0.5,0],[0.75,0],[1,0],[1,0.25],[1,0.5],[1,0.75],[1,1],[0.75,1],[0.5,1],[0.25,1],[0,1],[0,0.75],[0,0.5],[0,0.25]];outlineConnect=0;gradientColor=none;html=1;whiteSpace=wrap;fontSize=12;fontStyle=0;container=1;pointerEvents=0;collapsible=0;recursiveResize=0;shape=mxgraph.aws4.group;grIcon=mxgraph.aws4.group_security_group;grStroke=0;strokeColor=#248814;fillColor=#E9F3E6;verticalAlign=top;align=left;spacingLeft=30;fontColor=#248814;dashed=0;" parent="hSxU9nhvMt24uW7oTp4U-9" vertex="1">
          <mxGeometry x="20" y="431" width="200" height="150" as="geometry" />
        </mxCell>
        <mxCell id="hSxU9nhvMt24uW7oTp4U-18" value="security list &lt;br&gt;public" style="image;html=1;image=img/lib/clip_art/networking/Firewall_02_128x128.png" parent="hSxU9nhvMt24uW7oTp4U-52" vertex="1">
          <mxGeometry x="30" y="81" width="20" height="30" as="geometry" />
        </mxCell>
        <mxCell id="VFxCpets81M08XsOUOsf-4" value="ALB" style="sketch=0;outlineConnect=0;fontColor=#232F3E;gradientColor=none;fillColor=#4D27AA;strokeColor=none;dashed=0;verticalLabelPosition=bottom;verticalAlign=top;align=center;html=1;fontSize=12;fontStyle=1;aspect=fixed;pointerEvents=1;shape=mxgraph.aws4.application_load_balancer;labelPosition=center;" vertex="1" parent="hSxU9nhvMt24uW7oTp4U-52">
          <mxGeometry x="80" y="45.75" width="65.25" height="65.25" as="geometry" />
        </mxCell>
        <mxCell id="hSxU9nhvMt24uW7oTp4U-30" value="Public subnet" style="points=[[0,0],[0.25,0],[0.5,0],[0.75,0],[1,0],[1,0.25],[1,0.5],[1,0.75],[1,1],[0.75,1],[0.5,1],[0.25,1],[0,1],[0,0.75],[0,0.5],[0,0.25]];outlineConnect=0;gradientColor=none;html=1;whiteSpace=wrap;fontSize=12;fontStyle=0;container=1;pointerEvents=0;collapsible=0;recursiveResize=0;shape=mxgraph.aws4.group;grIcon=mxgraph.aws4.group_security_group;grStroke=0;strokeColor=#248814;fillColor=#E9F3E6;verticalAlign=top;align=left;spacingLeft=30;fontColor=#248814;dashed=0;" parent="hSxU9nhvMt24uW7oTp4U-9" vertex="1">
          <mxGeometry x="260" y="30" width="400" height="150" as="geometry" />
        </mxCell>
        <mxCell id="hSxU9nhvMt24uW7oTp4U-29" value="Private subnet" style="points=[[0,0],[0.25,0],[0.5,0],[0.75,0],[1,0],[1,0.25],[1,0.5],[1,0.75],[1,1],[0.75,1],[0.5,1],[0.25,1],[0,1],[0,0.75],[0,0.5],[0,0.25]];outlineConnect=0;gradientColor=none;html=1;whiteSpace=wrap;fontSize=12;fontStyle=0;container=1;pointerEvents=0;collapsible=0;recursiveResize=0;shape=mxgraph.aws4.group;grIcon=mxgraph.aws4.group_security_group;grStroke=0;strokeColor=#147EBA;fillColor=#E6F2F8;verticalAlign=top;align=left;spacingLeft=30;fontColor=#147EBA;dashed=0;" parent="hSxU9nhvMt24uW7oTp4U-9" vertex="1">
          <mxGeometry x="260" y="220" width="400" height="440" as="geometry" />
        </mxCell>
        <mxCell id="hSxU9nhvMt24uW7oTp4U-37" value="Masters" style="fillColor=none;strokeColor=#5A6C86;dashed=1;verticalAlign=top;fontStyle=0;fontColor=#5A6C86;" parent="hSxU9nhvMt24uW7oTp4U-29" vertex="1">
          <mxGeometry x="40" y="30" width="330" height="122" as="geometry" />
        </mxCell>
        <mxCell id="hSxU9nhvMt24uW7oTp4U-31" value="" style="sketch=0;aspect=fixed;html=1;points=[];align=center;image;fontSize=12;image=img/lib/mscae/Virtual_Machine.svg;" parent="hSxU9nhvMt24uW7oTp4U-29" vertex="1">
          <mxGeometry x="80" y="69" width="60.87" height="56" as="geometry" />
        </mxCell>
        <mxCell id="hSxU9nhvMt24uW7oTp4U-32" value="" style="sketch=0;aspect=fixed;html=1;points=[];align=center;image;fontSize=12;image=img/lib/mscae/Virtual_Machine.svg;" parent="hSxU9nhvMt24uW7oTp4U-29" vertex="1">
          <mxGeometry x="180" y="69" width="60.87" height="56" as="geometry" />
        </mxCell>
        <mxCell id="hSxU9nhvMt24uW7oTp4U-33" value="" style="sketch=0;aspect=fixed;html=1;points=[];align=center;image;fontSize=12;image=img/lib/mscae/Virtual_Machine.svg;" parent="hSxU9nhvMt24uW7oTp4U-29" vertex="1">
          <mxGeometry x="280" y="69" width="60.87" height="56" as="geometry" />
        </mxCell>
        <mxCell id="hSxU9nhvMt24uW7oTp4U-23" value="" style="sketch=0;aspect=fixed;html=1;points=[];align=center;image;fontSize=12;image=img/lib/mscae/Virtual_Machine.svg;" parent="hSxU9nhvMt24uW7oTp4U-29" vertex="1">
          <mxGeometry x="80" y="220" width="60.87" height="56" as="geometry" />
        </mxCell>
        <mxCell id="hSxU9nhvMt24uW7oTp4U-24" value="" style="sketch=0;aspect=fixed;html=1;points=[];align=center;image;fontSize=12;image=img/lib/mscae/Virtual_Machine.svg;" parent="hSxU9nhvMt24uW7oTp4U-29" vertex="1">
          <mxGeometry x="180" y="220" width="60.87" height="56" as="geometry" />
        </mxCell>
        <mxCell id="hSxU9nhvMt24uW7oTp4U-26" value="" style="sketch=0;aspect=fixed;html=1;points=[];align=center;image;fontSize=12;image=img/lib/mscae/Virtual_Machine.svg;" parent="hSxU9nhvMt24uW7oTp4U-29" vertex="1">
          <mxGeometry x="280" y="220" width="60.87" height="56" as="geometry" />
        </mxCell>
        <mxCell id="hSxU9nhvMt24uW7oTp4U-27" value="" style="sketch=0;aspect=fixed;html=1;points=[];align=center;image;fontSize=12;image=img/lib/mscae/Virtual_Machine.svg;" parent="hSxU9nhvMt24uW7oTp4U-29" vertex="1">
          <mxGeometry x="280" y="310" width="60.87" height="56" as="geometry" />
        </mxCell>
        <mxCell id="hSxU9nhvMt24uW7oTp4U-25" value="" style="sketch=0;aspect=fixed;html=1;points=[];align=center;image;fontSize=12;image=img/lib/mscae/Virtual_Machine.svg;" parent="hSxU9nhvMt24uW7oTp4U-29" vertex="1">
          <mxGeometry x="180" y="310" width="60.87" height="56" as="geometry" />
        </mxCell>
        <mxCell id="hSxU9nhvMt24uW7oTp4U-22" value="" style="sketch=0;aspect=fixed;html=1;points=[];align=center;image;fontSize=12;image=img/lib/mscae/Virtual_Machine.svg;" parent="hSxU9nhvMt24uW7oTp4U-29" vertex="1">
          <mxGeometry x="80" y="310" width="60.87" height="56" as="geometry" />
        </mxCell>
        <mxCell id="hSxU9nhvMt24uW7oTp4U-35" value="Workers" style="fillColor=none;strokeColor=#5A6C86;dashed=1;verticalAlign=top;fontStyle=0;fontColor=#5A6C86;" parent="hSxU9nhvMt24uW7oTp4U-29" vertex="1">
          <mxGeometry x="45.43" y="190" width="330" height="192" as="geometry" />
        </mxCell>
        <mxCell id="hSxU9nhvMt24uW7oTp4U-38" style="edgeStyle=orthogonalEdgeStyle;rounded=0;orthogonalLoop=1;jettySize=auto;html=1;entryX=0;entryY=0.5;entryDx=0;entryDy=0;startArrow=none;startFill=0;strokeWidth=2;fillColor=#d5e8d4;strokeColor=#82b366;" parent="hSxU9nhvMt24uW7oTp4U-9" target="hSxU9nhvMt24uW7oTp4U-35" edge="1">
          <mxGeometry relative="1" as="geometry">
            <mxPoint x="170" y="506" as="sourcePoint" />
          </mxGeometry>
        </mxCell>
        <mxCell id="hSxU9nhvMt24uW7oTp4U-51" value="HTTP" style="edgeLabel;html=1;align=center;verticalAlign=middle;resizable=0;points=[];fontStyle=1" parent="hSxU9nhvMt24uW7oTp4U-38" vertex="1" connectable="0">
          <mxGeometry x="-0.3355" y="1" relative="1" as="geometry">
            <mxPoint x="15" y="1" as="offset" />
          </mxGeometry>
        </mxCell>
        <mxCell id="hSxU9nhvMt24uW7oTp4U-44" value="Rancher" style="edgeStyle=orthogonalEdgeStyle;rounded=0;orthogonalLoop=1;jettySize=auto;html=1;exitX=1;exitY=0.5;exitDx=0;exitDy=0;exitPerimeter=0;startArrow=none;startFill=0;strokeColor=#82b366;strokeWidth=2;fillColor=#d5e8d4;fontStyle=1" parent="hSxU9nhvMt24uW7oTp4U-9" edge="1">
          <mxGeometry relative="1" as="geometry">
            <mxPoint x="260" y="311" as="targetPoint" />
            <Array as="points">
              <mxPoint x="86" y="310" />
              <mxPoint x="193" y="310" />
              <mxPoint x="193" y="311" />
            </Array>
            <mxPoint x="86" y="310" as="sourcePoint" />
          </mxGeometry>
        </mxCell>
        <mxCell id="hSxU9nhvMt24uW7oTp4U-40" style="edgeStyle=orthogonalEdgeStyle;rounded=0;orthogonalLoop=1;jettySize=auto;html=1;startArrow=none;startFill=0;strokeWidth=2;fillColor=#d5e8d4;strokeColor=#82b366;entryX=0.5;entryY=0;entryDx=0;entryDy=0;" parent="hSxU9nhvMt24uW7oTp4U-9" source="hSxU9nhvMt24uW7oTp4U-28" target="hSxU9nhvMt24uW7oTp4U-29" edge="1">
          <mxGeometry relative="1" as="geometry" />
        </mxCell>
        <mxCell id="hSxU9nhvMt24uW7oTp4U-43" value="SSH" style="edgeLabel;html=1;align=center;verticalAlign=middle;resizable=0;points=[];fontStyle=1" parent="hSxU9nhvMt24uW7oTp4U-40" vertex="1" connectable="0">
          <mxGeometry x="-0.2533" y="2" relative="1" as="geometry">
            <mxPoint x="-2" as="offset" />
          </mxGeometry>
        </mxCell>
        <mxCell id="hSxU9nhvMt24uW7oTp4U-28" value="bastion" style="sketch=0;aspect=fixed;html=1;points=[];align=center;image;fontSize=12;image=img/lib/mscae/Virtual_Machine.svg;" parent="hSxU9nhvMt24uW7oTp4U-9" vertex="1">
          <mxGeometry x="429" y="69" width="60.87" height="56" as="geometry" />
        </mxCell>
        <mxCell id="hSxU9nhvMt24uW7oTp4U-47" value="security list &lt;br&gt;bastion" style="image;html=1;image=img/lib/clip_art/networking/Firewall_02_128x128.png" parent="hSxU9nhvMt24uW7oTp4U-9" vertex="1">
          <mxGeometry x="150" y="110" width="20" height="30" as="geometry" />
        </mxCell>
        <mxCell id="VFxCpets81M08XsOUOsf-2" value="Peering" style="sketch=0;outlineConnect=0;fontColor=#232F3E;gradientColor=none;fillColor=#4D27AA;strokeColor=none;dashed=0;verticalLabelPosition=bottom;verticalAlign=top;align=center;html=1;fontSize=12;fontStyle=1;aspect=fixed;pointerEvents=1;shape=mxgraph.aws4.peering;" vertex="1" parent="hSxU9nhvMt24uW7oTp4U-9">
          <mxGeometry x="40" y="284" width="51" height="51" as="geometry" />
        </mxCell>
        <mxCell id="hSxU9nhvMt24uW7oTp4U-12" value="" style="edgeStyle=orthogonalEdgeStyle;html=1;endArrow=block;elbow=vertical;startArrow=none;endFill=1;strokeColor=#000000;rounded=0;strokeWidth=2;" parent="1" edge="1" source="VFxCpets81M08XsOUOsf-3">
          <mxGeometry width="100" relative="1" as="geometry">
            <mxPoint x="310" y="560" as="sourcePoint" />
            <mxPoint x="480" y="566" as="targetPoint" />
            <Array as="points">
              <mxPoint x="300" y="566" />
              <mxPoint x="300" y="566" />
            </Array>
          </mxGeometry>
        </mxCell>
        <mxCell id="hSxU9nhvMt24uW7oTp4U-17" value="HTTTPS" style="edgeLabel;html=1;align=left;verticalAlign=middle;resizable=0;points=[];labelPosition=right;verticalLabelPosition=middle;fontStyle=1" parent="hSxU9nhvMt24uW7oTp4U-12" vertex="1" connectable="0">
          <mxGeometry x="0.4189" relative="1" as="geometry">
            <mxPoint x="-31" as="offset" />
          </mxGeometry>
        </mxCell>
        <mxCell id="hSxU9nhvMt24uW7oTp4U-16" value="" style="edgeStyle=orthogonalEdgeStyle;rounded=0;orthogonalLoop=1;jettySize=auto;html=1;startArrow=classic;startFill=1;strokeWidth=2;fillColor=#dae8fc;strokeColor=#06080A;" parent="1" edge="1">
          <mxGeometry relative="1" as="geometry">
            <mxPoint x="278" y="370" as="sourcePoint" />
            <mxPoint x="420" y="370" as="targetPoint" />
          </mxGeometry>
        </mxCell>
        <mxCell id="hSxU9nhvMt24uW7oTp4U-45" style="edgeStyle=orthogonalEdgeStyle;rounded=0;orthogonalLoop=1;jettySize=auto;html=1;startArrow=none;startFill=0;strokeColor=#06080A;strokeWidth=2;" parent="1" source="hSxU9nhvMt24uW7oTp4U-1" target="hSxU9nhvMt24uW7oTp4U-28" edge="1">
          <mxGeometry relative="1" as="geometry" />
        </mxCell>
        <mxCell id="hSxU9nhvMt24uW7oTp4U-46" value="SSH" style="edgeLabel;html=1;align=center;verticalAlign=middle;resizable=0;points=[];fontStyle=1" parent="hSxU9nhvMt24uW7oTp4U-45" vertex="1" connectable="0">
          <mxGeometry x="0.0572" y="1" relative="1" as="geometry">
            <mxPoint as="offset" />
          </mxGeometry>
        </mxCell>
        <mxCell id="VFxCpets81M08XsOUOsf-3" value="Clientes" style="sketch=0;outlineConnect=0;gradientColor=none;fontColor=#545B64;strokeColor=none;fillColor=#879196;dashed=0;verticalLabelPosition=bottom;verticalAlign=top;align=center;html=1;fontSize=12;fontStyle=1;aspect=fixed;shape=mxgraph.aws4.illustration_users;pointerEvents=1" vertex="1" parent="1">
          <mxGeometry x="159" y="522" width="100" height="100" as="geometry" />
        </mxCell>
      </root>
    </mxGraphModel>
  </diagram>
</mxfile>
